<!DOCTYPE svg PUBLIC "-//W3C//DTD SVG 20010904//EN" "http://www.w3.org/TR/2001/REC-SVG-20010904/DTD/svg10.dtd">
<svg version="1.0" xmlns="http://www.w3.org/2000/svg" width="809px" height="100px" viewBox="0 0 8090 1000" preserveAspectRatio="xMidYMid meet">
<g id="layer101" fill="#ffffff" stroke="none">
<path d="M1229 919 c-61 -9 -98 -30 -142 -78 -55 -61 -70 -103 -71 -201 -1 -106 24 -169 93 -233 56 -53 105 -71 186 -71 122 1 206 78 217 199 l3 40 -199 3 -199 2 6 63 c19 198 128 276 287 206 25 -11 55 -29 67 -41 12 -11 27 -17 33 -13 18 11 -55 81 -109 103 -56 24 -111 31 -172 21z m185 -416 c-14 -80 -51 -122 -113 -130 -79 -11 -154 49 -175 140 l-6 27 150 0 151 0 -7 -37z"/>
<path d="M2559 920 c-25 -4 -60 -15 -77 -24 -31 -16 -32 -16 -32 4 0 13 -7 20 -19 20 -15 0 -19 -11 -24 -67 -10 -101 -9 -123 6 -123 8 0 19 18 25 39 15 49 79 108 126 117 86 16 160 -26 160 -91 0 -50 -33 -78 -153 -129 -107 -45 -138 -68 -157 -112 -19 -46 -17 -81 7 -131 40 -83 169 -115 267 -67 40 21 42 21 42 3 0 -12 7 -19 20 -19 19 0 20 7 20 95 0 78 -3 95 -15 95 -8 0 -15 -8 -15 -17 0 -10 -9 -37 -20 -60 -24 -55 -70 -83 -133 -83 -40 0 -54 5 -78 29 -33 33 -35 47 -15 95 12 30 30 42 138 94 138 67 167 92 175 150 7 55 -2 85 -38 126 -43 50 -122 71 -210 56z"/>
<path d="M4839 920 c-25 -4 -60 -15 -77 -24 -31 -16 -32 -16 -32 4 0 13 -7 20 -19 20 -15 0 -19 -11 -24 -67 -10 -101 -9 -123 6 -123 8 0 19 18 25 39 15 49 79 108 126 117 86 16 160 -26 160 -91 0 -50 -33 -78 -153 -129 -107 -45 -138 -68 -157 -112 -19 -46 -17 -81 7 -131 40 -83 169 -115 267 -67 40 21 42 21 42 3 0 -12 7 -19 20 -19 19 0 20 7 20 95 0 78 -3 95 -15 95 -8 0 -15 -8 -15 -17 0 -10 -9 -37 -20 -60 -24 -55 -70 -83 -133 -83 -40 0 -54 5 -78 29 -33 33 -35 47 -15 95 12 30 30 42 138 94 138 67 167 92 175 150 7 55 -2 85 -38 126 -43 50 -122 71 -210 56z"/>
<path d="M5900 919 c-67 -13 -120 -55 -155 -124 -27 -53 -30 -68 -30 -149 1 -73 6 -102 24 -143 25 -57 93 -127 144 -148 68 -28 156 -28 230 1 15 5 17 -5 17 -105 l0 -111 -40 0 c-33 0 -40 -3 -40 -20 0 -16 7 -20 33 -20 17 -1 50 -7 72 -15 22 -8 46 -15 53 -15 9 0 12 87 12 400 l0 400 41 0 c33 0 40 3 37 18 -3 14 -16 17 -81 20 -75 3 -77 2 -77 -21 0 -37 -9 -38 -52 -7 -22 16 -57 32 -77 36 -20 3 -43 7 -51 9 -8 1 -35 -1 -60 -6z m184 -76 l41 -29 3 -202 2 -201 -28 -15 c-141 -73 -266 11 -279 188 -14 178 65 305 181 292 22 -3 58 -17 80 -33z"/>
<path d="M6699 919 c-61 -9 -98 -30 -142 -78 -55 -61 -70 -103 -71 -201 -1 -106 24 -169 93 -233 56 -53 105 -71 186 -71 122 1 206 78 217 199 l3 40 -199 3 -199 2 6 63 c19 198 128 276 287 206 25 -11 55 -29 67 -41 12 -11 27 -17 33 -13 18 11 -55 81 -109 103 -56 24 -111 31 -172 21z m185 -416 c-14 -80 -51 -122 -113 -130 -79 -11 -154 49 -175 140 l-6 27 150 0 151 0 -7 -37z"/>
<path d="M82 893 c2 -10 13 -19 26 -21 49 -7 51 -23 52 -377 l1 -330 -40 -3 c-34 -3 -41 -7 -41 -24 0 -20 3 -21 193 -15 204 6 249 13 332 53 121 57 186 160 193 305 12 236 -122 392 -360 419 -45 6 -145 10 -221 10 -127 0 -138 -2 -135 -17z m430 -56 c130 -64 200 -204 184 -372 -17 -185 -130 -292 -320 -302 -45 -2 -87 0 -95 5 -24 17 -30 97 -30 406 l-1 298 103 -4 c87 -3 111 -8 159 -31z"/>
<path d="M1842 698 c-51 -117 -98 -234 -104 -260 -10 -40 -15 -48 -35 -48 -16 0 -23 -6 -23 -20 0 -19 7 -20 100 -20 66 0 100 4 100 11 0 6 -9 13 -20 16 -23 6 -34 34 -25 66 13 45 140 337 147 337 5 0 8 -4 8 -10 0 -8 113 -314 135 -362 6 -15 2 -18 -29 -18 -29 0 -36 -4 -36 -20 0 -18 7 -20 85 -20 62 0 85 3 85 13 0 7 -10 17 -22 22 -33 15 -51 53 -147 298 -69 178 -90 223 -106 225 -17 2 -34 -30 -113 -210z"/>
<path d="M3422 893 c2 -10 13 -19 25 -21 46 -7 48 -15 53 -369 l5 -333 -42 0 c-36 0 -43 -3 -43 -20 0 -19 7 -20 125 -20 99 0 125 3 125 14 0 7 -13 16 -30 19 -21 5 -32 14 -37 34 -5 15 -8 172 -8 348 l0 320 38 3 c29 3 37 7 37 23 0 18 -8 19 -126 19 -114 0 -125 -2 -122 -17z"/>
<path d="M3890 896 c0 -7 11 -17 24 -20 39 -10 46 -51 46 -267 l0 -199 -40 0 c-33 0 -40 -3 -40 -20 0 -16 7 -20 33 -20 17 -1 50 -7 72 -15 57 -21 65 -19 65 15 0 17 2 30 5 30 3 0 22 -11 43 -25 20 -13 59 -29 87 -35 93 -21 168 9 207 82 21 40 23 58 26 246 l4 202 35 0 c27 0 34 4 31 18 -3 15 -18 17 -116 20 -92 2 -112 0 -112 -12 0 -7 10 -16 23 -20 39 -9 47 -46 47 -200 0 -205 -21 -265 -102 -286 -48 -13 -105 1 -148 36 l-30 26 0 209 0 209 36 0 c28 0 35 3 32 18 -3 15 -18 17 -116 20 -92 2 -112 0 -112 -12z"/>
<path d="M5290 896 c0 -7 11 -17 24 -20 39 -10 46 -51 46 -267 l0 -199 -40 0 c-33 0 -40 -3 -40 -20 0 -16 7 -20 33 -20 17 -1 50 -7 72 -15 22 -8 46 -15 53 -15 9 0 12 60 12 265 l0 265 36 0 c28 0 35 3 32 18 -3 15 -18 17 -116 20 -92 2 -112 0 -112 -12z"/>
<path d="M5355 196 c-22 -33 -13 -70 20 -92 23 -15 27 -15 49 0 35 23 42 53 19 85 -28 36 -67 39 -88 7z"/>
</g>
<g id="layer102" fill="#a85542" stroke="none">
<path d="M7080 973 c0 -21 37 -64 187 -215 l188 -188 -188 -188 c-196 -196 -207 -212 -167 -252 40 -40 55 -31 283 198 188 188 218 222 215 245 -2 19 -61 84 -202 227 l-200 200 -58 0 c-56 0 -58 -1 -58 -27z"/>
<path d="M7490 972 c0 -22 34 -61 185 -212 l185 -185 -185 -185 c-159 -160 -185 -191 -185 -217 0 -35 27 -63 61 -63 34 0 459 425 459 460 0 17 -52 76 -197 225 l-198 202 -62 2 c-62 1 -63 1 -63 -27z"/>
</g>


</svg>